<style>
  @media (prefers-color-scheme: dark) {
    svg#zinc-logo {
      display: none;
    }
  }
</style>

<svg id="zinc-logo" width="369" height="68" viewBox="0 0 369 68" fill="none" xmlns="http://www.w3.org/2000/svg">
<path opacity="0.85" d="M93.6983 40.2757C92.4757 39.2281 92.9001 37.7843 94.646 37.0508L115.985 28.0857C117.731 27.3522 120.137 27.6068 121.36 28.6544L136.302 41.4578C137.524 42.5054 137.1 43.9492 135.354 44.6827L114.015 53.6478C112.269 54.3813 109.863 54.1267 108.64 53.0791L93.6983 40.2757Z" fill="#71717A"/>
<path opacity="0.85" d="M93.6983 32.9422C92.4757 31.8947 92.9001 30.4508 94.646 29.7173L115.985 20.7522C117.731 20.0187 120.137 20.2733 121.36 21.3209L136.302 34.1243C137.524 35.1719 137.1 36.6157 135.354 37.3492L114.015 46.3143C112.269 47.0478 109.863 46.7932 108.64 45.7456L93.6983 32.9422Z" fill="#3F3F46"/>
<path opacity="0.9" d="M93.6983 25.609C92.4757 24.5614 92.9001 23.1175 94.646 22.384L115.985 13.419C117.731 12.6854 120.137 12.94 121.36 13.9876L136.302 26.791C137.524 27.8386 137.1 29.2825 135.354 30.016L114.015 38.981C112.269 39.7146 109.863 39.46 108.64 38.4124L93.6983 25.609Z" fill="#18181B"/>
<path d="M156.994 47V43.7145L170.06 25.3821H156.969V20.8182H177.014V24.1037L163.936 42.4361H177.04V47H156.994ZM181.185 47V27.3636H186.631V47H181.185ZM183.921 24.8324C183.111 24.8324 182.417 24.5639 181.837 24.027C181.266 23.4815 180.98 22.8295 180.98 22.071C180.98 21.321 181.266 20.6776 181.837 20.1406C182.417 19.5952 183.111 19.3224 183.921 19.3224C184.73 19.3224 185.421 19.5952 185.992 20.1406C186.571 20.6776 186.861 21.321 186.861 22.071C186.861 22.8295 186.571 23.4815 185.992 24.027C185.421 24.5639 184.73 24.8324 183.921 24.8324ZM196.44 35.6477V47H190.994V27.3636H196.184V30.8281H196.414C196.849 29.6861 197.577 28.7827 198.6 28.1179C199.623 27.4446 200.863 27.108 202.32 27.108C203.684 27.108 204.873 27.4062 205.887 28.0028C206.901 28.5994 207.69 29.4517 208.252 30.5597C208.815 31.6591 209.096 32.9716 209.096 34.4972V47H203.65V35.4688C203.658 34.267 203.352 33.3295 202.729 32.6562C202.107 31.9744 201.251 31.6335 200.16 31.6335C199.427 31.6335 198.779 31.7912 198.217 32.1065C197.663 32.4219 197.228 32.8821 196.913 33.4872C196.606 34.0838 196.448 34.804 196.44 35.6477ZM222.26 47.3835C220.249 47.3835 218.519 46.9574 217.07 46.1051C215.63 45.2443 214.522 44.0511 213.746 42.5256C212.979 41 212.596 39.2443 212.596 37.2585C212.596 35.2472 212.983 33.483 213.759 31.9659C214.543 30.4403 215.655 29.2514 217.096 28.3991C218.536 27.5384 220.249 27.108 222.235 27.108C223.948 27.108 225.448 27.419 226.735 28.0412C228.022 28.6634 229.04 29.5369 229.79 30.6619C230.54 31.7869 230.953 33.108 231.03 34.625H225.891C225.746 33.6449 225.363 32.8565 224.74 32.2599C224.127 31.6548 223.321 31.3523 222.324 31.3523C221.48 31.3523 220.743 31.5824 220.113 32.0426C219.49 32.4943 219.005 33.1548 218.655 34.0241C218.306 34.8935 218.131 35.946 218.131 37.1818C218.131 38.4347 218.301 39.5 218.642 40.3778C218.992 41.2557 219.482 41.9247 220.113 42.3849C220.743 42.8452 221.48 43.0753 222.324 43.0753C222.946 43.0753 223.505 42.9474 223.999 42.6918C224.502 42.4361 224.915 42.0653 225.239 41.5795C225.571 41.0852 225.789 40.4929 225.891 39.8026H231.03C230.945 41.3026 230.536 42.6236 229.803 43.7656C229.078 44.8991 228.077 45.7855 226.799 46.4247C225.52 47.0639 224.007 47.3835 222.26 47.3835ZM259.123 20.8182H264.659V37.821C264.659 39.7301 264.203 41.4006 263.291 42.8324C262.387 44.2642 261.122 45.3807 259.494 46.1818C257.866 46.9744 255.97 47.3707 253.805 47.3707C251.632 47.3707 249.731 46.9744 248.103 46.1818C246.475 45.3807 245.21 44.2642 244.306 42.8324C243.403 41.4006 242.951 39.7301 242.951 37.821V20.8182H248.487V37.348C248.487 38.3452 248.704 39.2315 249.139 40.0071C249.582 40.7827 250.204 41.392 251.005 41.8352C251.806 42.2784 252.74 42.5 253.805 42.5C254.879 42.5 255.812 42.2784 256.605 41.8352C257.406 41.392 258.024 40.7827 258.458 40.0071C258.902 39.2315 259.123 38.3452 259.123 37.348V20.8182ZM274.749 20.8182V47H269.213V20.8182H274.749Z" fill="black"/>
</svg>
